<svg width="27" height="24" viewBox="0 0 27 24" fill="none" xmlns="http://www.w3.org/2000/svg">
<path d="M15.0945 17.2895L18.0573 19.9858C17.52 20.7135 16.8341 21.3808 16.0019 21.9939C15.1677 22.607 14.233 23.0928 13.198 23.4557C12.163 23.8185 11.0506 24 9.86295 24C7.92674 24 6.21426 23.5704 4.7297 22.7092C3.24304 21.8479 2.08466 20.6676 1.25038 19.1662C0.416096 17.6648 0 15.9486 0 14.0176C0 12.6038 0.240458 11.2775 0.719282 10.0451C1.19811 8.81272 1.87348 7.7367 2.74749 6.81917C3.61941 5.90164 4.66488 5.18429 5.88181 4.66714C7.09873 4.14999 8.44529 3.89349 9.9215 3.89349C11.6842 3.89349 13.2377 4.2188 14.5801 4.86941C15.9225 5.52003 17.0349 6.45633 17.9151 7.6804L14.9523 10.5206C14.3773 9.71773 13.6956 9.07129 12.9094 8.58542C12.1233 8.09746 11.1844 7.85348 10.0909 7.85348C8.94085 7.85348 7.94765 8.12665 7.11337 8.67091C6.27908 9.21518 5.63717 9.94712 5.18761 10.8646C4.73597 11.7822 4.51224 12.7956 4.51224 13.905C4.51224 15.0144 4.73806 16.0466 5.18761 16.9454C5.63717 17.8441 6.2749 18.5573 7.10082 19.0828C7.92465 19.6083 8.89275 19.8711 10.0051 19.8711C10.9251 19.8711 11.6925 19.7459 12.3052 19.4978C12.9178 19.2496 13.4405 18.9285 13.8734 18.5365C14.3041 18.1444 14.7118 17.7295 15.0966 17.2895H15.0945Z" fill="black"/>
<path d="M9.96969 23.9812C9.72714 23.6496 9.15423 22.7759 9.1375 21.5414C9.12704 20.7949 9.32568 20.2026 9.47832 19.8481C9.22741 19.8314 8.93677 19.7918 8.61686 19.7147C8.2133 19.6187 7.87457 19.4874 7.60693 19.3602C7.67175 20.0629 7.88712 21.3078 8.7214 22.5674C9.13332 23.1888 9.58705 23.6517 9.96969 23.9791V23.9812Z" fill="black"/>
<path d="M7.51264 16.7973C7.26173 19.1975 8.09602 21.1994 8.09602 21.1994C8.6543 22.5402 9.44258 23.4578 9.9695 23.9812C9.34012 24.0062 8.47657 23.9791 7.48128 23.7622C6.17863 23.4786 5.22307 22.9927 4.72752 22.7091C3.72387 22.1378 2.99622 21.4851 2.50903 20.9742C2.76831 20.1588 3.18859 18.9493 3.82632 17.473C3.91205 17.2749 3.95387 17.1748 4.01451 17.0434C5.26071 14.4159 7.222 12.5162 7.222 12.5162C8.20684 11.68 9.47185 10.7437 11.0338 9.8783C12.2131 9.2256 13.3275 8.74181 14.3145 8.37897C10.465 10.335 7.85347 13.5484 7.51474 16.7931L7.51264 16.7973Z" fill="#2DCDC7"/>
<path d="M21.3171 5.90583C21.4405 6.081 21.6977 6.08934 21.8315 5.92251C23.0171 4.45863 24.2026 2.99267 25.3903 1.52879C25.5973 1.27021 25.9465 0.865662 26.2267 0.500734C26.3877 0.292204 26.2308 -0.0101639 25.9653 0.000262576L18.0783 0.308887C17.8253 0.319313 17.6831 0.600829 17.8232 0.809359C18.1473 1.29106 18.4735 1.77277 18.7976 2.25447L24.2821 0.946989C24.2695 0.9595 24.2486 0.969927 24.2382 0.978268C24.2277 0.986609 24.2068 1.00121 24.1943 1.00746L20.0856 2.94471C19.889 3.0302 19.6277 3.15741 19.4855 3.24499L18.9565 5.25313C18.9063 5.44081 19.1196 5.58469 19.2764 5.47417L20.4389 4.65048L21.3171 5.90166V5.90583Z" fill="#2DCDC7"/>
<path d="M4.63966 15.2418C4.1462 15.9799 3.61928 16.8745 3.1321 17.9255C2.69927 18.8618 2.38354 19.7377 2.15145 20.5155L1.34644 19.3894C1.72071 18.1779 2.46718 16.5409 4.01656 15.3147C4.20056 15.1688 4.38875 15.0353 4.57484 14.9164L4.63966 15.2438V15.2418Z" fill="black"/>
<path d="M10.8436 9.19651C10.9251 9.31537 7.01926 11.1525 4.14004 15.5504C2.97748 17.325 2.31675 19.0058 1.92574 20.2465C1.78147 20.0672 1.62883 19.8566 1.48037 19.6126C1.32355 19.3561 1.20019 19.1121 1.104 18.8931C1.61837 17.7942 2.41711 16.3324 3.6424 14.8018C6.83944 10.8105 10.7662 9.07764 10.8457 9.19442L10.8436 9.19651Z" fill="#2DCDC7"/>
</svg>
