<svg width="45" height="45" viewBox="0 0 45 45" fill="none" xmlns="http://www.w3.org/2000/svg">
<circle cx="22.5" cy="22.5" r="22.5" fill="#FFD6F6"/>
<path d="M19.468 24.2496C19.3297 24.0106 19.0238 23.9289 18.7848 24.0672C18.5458 24.2055 18.4641 24.5113 18.6024 24.7504C19.3797 26.0941 20.8338 27 22.5 27C24.1663 27 25.6204 26.0941 26.3977 24.7504C26.536 24.5113 26.4543 24.2055 26.2153 24.0672C25.9762 23.9289 25.6704 24.0106 25.5321 24.2496C24.9262 25.2971 23.7949 26 22.5 26C21.2052 26 20.0739 25.2971 19.468 24.2496Z" fill="#FC47BE"/>
<path d="M21.5 19.6164V19.5C21.5 18.9477 21.0523 18.5 20.5 18.5H17.7808C17.1302 18.5 16.6528 19.1114 16.8106 19.7425L17.1213 20.9851C17.3439 21.8754 18.1438 22.5 19.0616 22.5H19.5C20.5502 22.5 21.4114 21.6905 21.4936 20.6614C21.7596 20.5644 22.107 20.5 22.5 20.5C22.893 20.5 23.2404 20.5644 23.5064 20.6614C23.5886 21.6905 24.4498 22.5 25.5 22.5H25.9384C26.8562 22.5 27.6561 21.8754 27.8787 20.9851L28.1894 19.7425C28.3472 19.1114 27.8698 18.5 27.2192 18.5H24.5C23.9477 18.5 23.5 18.9477 23.5 19.5V19.6164C23.1902 19.5403 22.8505 19.5 22.5 19.5C22.1495 19.5 21.8098 19.5403 21.5 19.6164Z" fill="#FC47BE"/>
<path d="M30.5 22.5C30.5 26.9183 26.9183 30.5 22.5 30.5C18.0817 30.5 14.5 26.9183 14.5 22.5C14.5 18.0817 18.0817 14.5 22.5 14.5C26.9183 14.5 30.5 18.0817 30.5 22.5ZM29.5 22.5C29.5 18.634 26.366 15.5 22.5 15.5C18.634 15.5 15.5 18.634 15.5 22.5C15.5 26.366 18.634 29.5 22.5 29.5C26.366 29.5 29.5 26.366 29.5 22.5Z" fill="#FC47BE"/>
</svg>
