<svg width="36" height="37" viewBox="0 0 36 37" fill="none" xmlns="http://www.w3.org/2000/svg">
<g filter="url(#filter0_d_1_1631)">
<rect x="4" y="0.5" width="28" height="28" rx="14" fill="white"/>
<rect x="4.5" y="1" width="27" height="27" rx="13.5" stroke="#004850"/>
<path fill-rule="evenodd" clip-rule="evenodd" d="M24 9C24 8.72386 23.7761 8.5 23.5 8.5H17.5C17.2239 8.5 17 8.72386 17 9C17 9.27614 17.2239 9.5 17.5 9.5H22.2929L12.1464 19.6464C11.9512 19.8417 11.9512 20.1583 12.1464 20.3536C12.3417 20.5488 12.6583 20.5488 12.8536 20.3536L23 10.2071V15C23 15.2761 23.2239 15.5 23.5 15.5C23.7761 15.5 24 15.2761 24 15V9Z" fill="#004850"/>
</g>
<defs>
<filter id="filter0_d_1_1631" x="0" y="0.5" width="36" height="36" filterUnits="userSpaceOnUse" color-interpolation-filters="sRGB">
<feFlood flood-opacity="0" result="BackgroundImageFix"/>
<feColorMatrix in="SourceAlpha" type="matrix" values="0 0 0 0 0 0 0 0 0 0 0 0 0 0 0 0 0 0 127 0" result="hardAlpha"/>
<feOffset dy="4"/>
<feGaussianBlur stdDeviation="2"/>
<feColorMatrix type="matrix" values="0 0 0 0 0.5445 0 0 0 0 0.70719 0 0 0 0 0.825 0 0 0 0.1 0"/>
<feBlend mode="normal" in2="BackgroundImageFix" result="effect1_dropShadow_1_1631"/>
<feBlend mode="normal" in="SourceGraphic" in2="effect1_dropShadow_1_1631" result="shape"/>
</filter>
</defs>
</svg>
