<svg width="82" height="36" viewBox="0 0 82 36" fill="none" xmlns="http://www.w3.org/2000/svg">
<g filter="url(#filter0_d_287_5448)">
<rect x="4.5" width="73" height="28" rx="4" fill="#004850"/>
<path d="M15.139 20H13.781V9.969H15.139V20ZM18.4775 13.938C18.6315 13.7653 18.7948 13.609 18.9675 13.469C19.1401 13.329 19.3221 13.21 19.5135 13.112C19.7095 13.0093 19.9148 12.9323 20.1295 12.881C20.3488 12.825 20.5845 12.797 20.8365 12.797C21.2238 12.797 21.5645 12.8623 21.8585 12.993C22.1571 13.119 22.4045 13.301 22.6005 13.539C22.8011 13.7723 22.9528 14.0547 23.0555 14.386C23.1581 14.7173 23.2095 15.0837 23.2095 15.485V20H21.9565V15.485C21.9565 14.9483 21.8328 14.533 21.5855 14.239C21.3428 13.9403 20.9718 13.791 20.4725 13.791C20.1038 13.791 19.7585 13.8797 19.4365 14.057C19.1191 14.2343 18.8251 14.4747 18.5545 14.778V20H17.3015V12.909H18.0505C18.2278 12.909 18.3375 12.9953 18.3795 13.168L18.4775 13.938ZM29.2381 14.078C29.1821 14.1807 29.0958 14.232 28.9791 14.232C28.9091 14.232 28.8298 14.2063 28.7411 14.155C28.6524 14.1037 28.5428 14.0477 28.4121 13.987C28.2861 13.9217 28.1344 13.8633 27.9571 13.812C27.7798 13.756 27.5698 13.728 27.3271 13.728C27.1171 13.728 26.9281 13.756 26.7601 13.812C26.5921 13.8633 26.4474 13.9357 26.3261 14.029C26.2094 14.1223 26.1184 14.232 26.0531 14.358C25.9924 14.4793 25.9621 14.6123 25.9621 14.757C25.9621 14.939 26.0134 15.0907 26.1161 15.212C26.2234 15.3333 26.3634 15.4383 26.5361 15.527C26.7088 15.6157 26.9048 15.695 27.1241 15.765C27.3434 15.8303 27.5674 15.9027 27.7961 15.982C28.0294 16.0567 28.2558 16.1407 28.4751 16.234C28.6944 16.3273 28.8904 16.444 29.0631 16.584C29.2358 16.724 29.3734 16.8967 29.4761 17.102C29.5834 17.3027 29.6371 17.5453 29.6371 17.83C29.6371 18.1567 29.5788 18.46 29.4621 18.74C29.3454 19.0153 29.1728 19.2557 28.9441 19.461C28.7154 19.6617 28.4354 19.8203 28.1041 19.937C27.7728 20.0537 27.3901 20.112 26.9561 20.112C26.4614 20.112 26.0134 20.0327 25.6121 19.874C25.2108 19.7107 24.8701 19.503 24.5901 19.251L24.8841 18.775C24.9214 18.7143 24.9658 18.6677 25.0171 18.635C25.0684 18.6023 25.1338 18.586 25.2131 18.586C25.2971 18.586 25.3858 18.6187 25.4791 18.684C25.5724 18.7493 25.6844 18.8217 25.8151 18.901C25.9504 18.9803 26.1138 19.0527 26.3051 19.118C26.4964 19.1833 26.7344 19.216 27.0191 19.216C27.2618 19.216 27.4741 19.1857 27.6561 19.125C27.8381 19.0597 27.9898 18.9733 28.1111 18.866C28.2324 18.7587 28.3211 18.635 28.3771 18.495C28.4378 18.355 28.4681 18.2057 28.4681 18.047C28.4681 17.851 28.4144 17.69 28.3071 17.564C28.2044 17.4333 28.0668 17.3237 27.8941 17.235C27.7214 17.1417 27.5231 17.0623 27.2991 16.997C27.0798 16.927 26.8534 16.8547 26.6201 16.78C26.3914 16.7053 26.1651 16.6213 25.9411 16.528C25.7218 16.43 25.5258 16.3087 25.3531 16.164C25.1804 16.0193 25.0404 15.842 24.9331 15.632C24.8304 15.4173 24.7791 15.1583 24.7791 14.855C24.7791 14.5843 24.8351 14.3253 24.9471 14.078C25.0591 13.826 25.2224 13.6067 25.4371 13.42C25.6518 13.2287 25.9154 13.077 26.2281 12.965C26.5408 12.853 26.8978 12.797 27.2991 12.797C27.7658 12.797 28.1834 12.8717 28.5521 13.021C28.9254 13.1657 29.2474 13.3663 29.5181 13.623L29.2381 14.078ZM33.3417 20.112C32.7817 20.112 32.3501 19.9557 32.0467 19.643C31.7481 19.3303 31.5987 18.88 31.5987 18.292V13.952H30.7447C30.6701 13.952 30.6071 13.931 30.5557 13.889C30.5044 13.8423 30.4787 13.7723 30.4787 13.679V13.182L31.6407 13.035L31.9277 10.844C31.9417 10.774 31.9721 10.718 32.0187 10.676C32.0701 10.6293 32.1354 10.606 32.2147 10.606H32.8447V13.049H34.8957V13.952H32.8447V18.208C32.8447 18.5067 32.9171 18.7283 33.0617 18.873C33.2064 19.0177 33.3931 19.09 33.6217 19.09C33.7524 19.09 33.8644 19.0737 33.9577 19.041C34.0557 19.0037 34.1397 18.964 34.2097 18.922C34.2797 18.88 34.3381 18.8427 34.3847 18.81C34.4361 18.7727 34.4804 18.754 34.5177 18.754C34.5831 18.754 34.6414 18.7937 34.6927 18.873L35.0567 19.468C34.8421 19.6687 34.5831 19.8273 34.2797 19.944C33.9764 20.056 33.6637 20.112 33.3417 20.112ZM40.0253 16.808C39.4513 16.8267 38.9613 16.8733 38.5553 16.948C38.154 17.018 37.825 17.1113 37.5683 17.228C37.3163 17.3447 37.132 17.4823 37.0153 17.641C36.9033 17.7997 36.8473 17.977 36.8473 18.173C36.8473 18.3597 36.8776 18.5207 36.9383 18.656C36.999 18.7913 37.0806 18.9033 37.1833 18.992C37.2906 19.076 37.4143 19.139 37.5543 19.181C37.699 19.2183 37.853 19.237 38.0163 19.237C38.2356 19.237 38.4363 19.216 38.6183 19.174C38.8003 19.1273 38.9706 19.062 39.1293 18.978C39.2926 18.894 39.4466 18.7937 39.5913 18.677C39.7406 18.5603 39.8853 18.4273 40.0253 18.278V16.808ZM36.0003 13.91C36.3923 13.532 36.8146 13.2497 37.2673 13.063C37.72 12.8763 38.2216 12.783 38.7723 12.783C39.169 12.783 39.5213 12.8483 39.8293 12.979C40.1373 13.1097 40.3963 13.2917 40.6063 13.525C40.8163 13.7583 40.975 14.0407 41.0823 14.372C41.1896 14.7033 41.2433 15.0673 41.2433 15.464V20H40.6903C40.569 20 40.4756 19.9813 40.4103 19.944C40.345 19.902 40.2936 19.8227 40.2563 19.706L40.1163 19.034C39.9296 19.2067 39.7476 19.3607 39.5703 19.496C39.393 19.6267 39.2063 19.7387 39.0103 19.832C38.8143 19.9207 38.6043 19.9883 38.3803 20.035C38.161 20.0863 37.916 20.112 37.6453 20.112C37.37 20.112 37.111 20.0747 36.8683 20C36.6256 19.9207 36.4133 19.804 36.2313 19.65C36.054 19.496 35.9116 19.3023 35.8043 19.069C35.7016 18.831 35.6503 18.551 35.6503 18.229C35.6503 17.949 35.7273 17.6807 35.8813 17.424C36.0353 17.1627 36.285 16.9317 36.6303 16.731C36.9756 16.5303 37.426 16.367 37.9813 16.241C38.5366 16.1103 39.218 16.0357 40.0253 16.017V15.464C40.0253 14.9133 39.9063 14.498 39.6683 14.218C39.4303 13.9333 39.0826 13.791 38.6253 13.791C38.3173 13.791 38.0583 13.8307 37.8483 13.91C37.643 13.9847 37.4633 14.071 37.3093 14.169C37.16 14.2623 37.0293 14.3487 36.9173 14.428C36.81 14.5027 36.7026 14.54 36.5953 14.54C36.5113 14.54 36.439 14.519 36.3783 14.477C36.3176 14.4303 36.2663 14.3743 36.2243 14.309L36.0003 13.91ZM44.4293 9.689V20H43.1833V9.689H44.4293ZM47.7379 9.689V20H46.4919V9.689H47.7379Z" fill="white"/>
<path fill-rule="evenodd" clip-rule="evenodd" d="M62.1364 9.5C62.1364 9.22386 61.9125 9 61.6364 9H55C54.1716 9 53.5 9.67157 53.5 10.5V20.5C53.5 21.3284 54.1716 22 55 22H65C65.8284 22 66.5 21.3284 66.5 20.5V13.8636C66.5 13.5875 66.2761 13.3636 66 13.3636C65.7239 13.3636 65.5 13.5875 65.5 13.8636V20.5C65.5 20.7761 65.2761 21 65 21H55C54.7239 21 54.5 20.7761 54.5 20.5V10.5C54.5 10.2239 54.7239 10 55 10H61.6364C61.9125 10 62.1364 9.77614 62.1364 9.5Z" fill="white"/>
<path fill-rule="evenodd" clip-rule="evenodd" d="M69.5 6.5C69.5 6.22386 69.2761 6 69 6H64C63.7239 6 63.5 6.22386 63.5 6.5C63.5 6.77614 63.7239 7 64 7H67.7929L59.6464 15.1464C59.4512 15.3417 59.4512 15.6583 59.6464 15.8536C59.8417 16.0488 60.1583 16.0488 60.3536 15.8536L68.5 7.70711V11.5C68.5 11.7761 68.7239 12 69 12C69.2761 12 69.5 11.7761 69.5 11.5V6.5Z" fill="white"/>
</g>
<defs>
<filter id="filter0_d_287_5448" x="0.5" y="0" width="81" height="36" filterUnits="userSpaceOnUse" color-interpolation-filters="sRGB">
<feFlood flood-opacity="0" result="BackgroundImageFix"/>
<feColorMatrix in="SourceAlpha" type="matrix" values="0 0 0 0 0 0 0 0 0 0 0 0 0 0 0 0 0 0 127 0" result="hardAlpha"/>
<feOffset dy="4"/>
<feGaussianBlur stdDeviation="2"/>
<feColorMatrix type="matrix" values="0 0 0 0 0.5445 0 0 0 0 0.70719 0 0 0 0 0.825 0 0 0 0.1 0"/>
<feBlend mode="normal" in2="BackgroundImageFix" result="effect1_dropShadow_287_5448"/>
<feBlend mode="normal" in="SourceGraphic" in2="effect1_dropShadow_287_5448" result="shape"/>
</filter>
</defs>
</svg>
