<svg width="143" height="143" viewBox="0 0 143 143" fill="none" xmlns="http://www.w3.org/2000/svg">
<g opacity="0.2">
<mask id="path-1-inside-1_480_289" fill="white">
<path d="M71.5 0C110.988 0 143 32.0116 143 71.5C143 110.988 110.988 143 71.5 143C32.0116 143 0 110.988 0 71.5C0 32.0116 32.0116 0 71.5 0ZM71.5 133.705C105.855 133.705 133.705 105.855 133.705 71.5C133.705 37.1451 105.855 9.295 71.5 9.295C37.1451 9.295 9.295 37.1451 9.295 71.5C9.295 105.855 37.1451 133.705 71.5 133.705Z"/>
</mask>
<path d="M71.5 0C110.988 0 143 32.0116 143 71.5C143 110.988 110.988 143 71.5 143C32.0116 143 0 110.988 0 71.5C0 32.0116 32.0116 0 71.5 0ZM71.5 133.705C105.855 133.705 133.705 105.855 133.705 71.5C133.705 37.1451 105.855 9.295 71.5 9.295C37.1451 9.295 9.295 37.1451 9.295 71.5C9.295 105.855 37.1451 133.705 71.5 133.705Z" stroke="url(#paint0_linear_480_289)" stroke-width="70.642" stroke-linecap="round" mask="url(#path-1-inside-1_480_289)"/>
</g>
<defs>
<linearGradient id="paint0_linear_480_289" x1="15.7896" y1="19.0667" x2="144.912" y2="67.9973" gradientUnits="userSpaceOnUse">
<stop stop-color="#FDAB5F"/>
<stop offset="1" stop-color="#FDAB5F"/>
</linearGradient>
</defs>
</svg>
