<svg width="15" height="20" viewBox="0 0 15 20" fill="none" xmlns="http://www.w3.org/2000/svg">
<path d="M6.16699 11.8754L8.03677 12.9549L4.23985 19.5314L3.15006 17.1009L6.16699 11.8754Z" fill="#AA75CB"/>
<path d="M6.16699 11.8754L4.29722 10.7959L0.500303 17.3724L3.15006 17.1009L6.16699 11.8754Z" fill="#73488D"/>
<path d="M8.8335 11.8754L6.96372 12.9549L10.7606 19.5314L11.8504 17.1009L8.8335 11.8754Z" fill="#73488D"/>
<path d="M8.8335 11.8754L10.7033 10.7959L14.5002 17.3724L11.8504 17.1009L8.8335 11.8754Z" fill="#AA75CB"/>
<circle cx="7.40422" cy="7.81426" r="6.90422" fill="url(#paint0_linear_480_2194)"/>
<circle cx="7.40415" cy="7.81425" r="5.75352" fill="url(#paint1_linear_480_2194)"/>
<path d="M8.88168 9.42763C9.14735 9.60186 9.41249 9.77664 9.67817 9.95087C9.57515 10.1077 9.41032 10.321 9.16199 10.5251C9.00801 10.6521 8.783 10.8068 8.48641 10.9268C8.09169 11.0858 7.75119 11.1086 7.5945 11.1124C6.93573 11.1276 6.45913 10.8768 6.28292 10.7813C6.00098 10.6288 5.81826 10.4638 5.75916 10.4095C5.68271 10.3384 5.49348 10.1533 5.32214 9.86782C4.967 9.27891 4.9502 8.70248 4.9502 8.53367C4.9502 8.29431 4.98381 7.94422 5.14105 7.5583C5.32702 7.10291 5.59541 6.81849 5.70114 6.71374C6.04923 6.36962 6.40491 6.22252 6.57571 6.15413C6.74216 6.08737 7.11519 5.94191 7.60805 5.95548C7.6948 5.95765 7.91711 5.96905 8.19254 6.04286C8.42515 6.10528 8.60516 6.18887 8.72119 6.24966C8.95216 6.3707 9.1056 6.49608 9.13759 6.52268C9.26067 6.62472 9.43147 6.78864 9.58925 7.03072C9.35773 7.23861 9.12567 7.44649 8.89415 7.65437C8.80902 7.53008 8.64474 7.32491 8.37255 7.15773C8.02717 6.94605 7.70619 6.91782 7.63354 6.9124C7.53865 6.90534 7.22092 6.89123 6.85928 7.05189C6.4548 7.23155 6.24117 7.52139 6.19183 7.59141C5.92236 7.97244 5.89471 8.37464 5.90338 8.59338C5.90934 8.73884 5.94188 9.06451 6.15117 9.39832C6.29539 9.62846 6.46672 9.77229 6.57028 9.8472C6.67005 9.91993 6.80777 10.003 6.98398 10.0654C7.28599 10.1723 7.54949 10.1642 7.68884 10.1501C7.80433 10.1387 8.0391 10.1126 8.28743 9.96824C8.42894 9.88628 8.53087 9.79183 8.61871 9.71042C8.73366 9.60403 8.82041 9.50362 8.88113 9.42709L8.88168 9.42763Z" fill="#AE7A4A"/>
<path d="M7.63838 11.113C7.56898 11.0229 7.41554 10.7971 7.40903 10.4817C7.40632 10.3504 7.42964 10.2391 7.45566 10.1566C7.39277 10.1539 7.32065 10.1474 7.24258 10.1338C7.16667 10.1202 7.09835 10.1029 7.03979 10.0844C7.0848 10.2668 7.16287 10.4986 7.30276 10.7455C7.38463 10.8904 7.47193 11.0126 7.5538 11.1124C7.58199 11.1124 7.61073 11.113 7.63892 11.1135L7.63838 11.113Z" fill="#AE7A4A"/>
<path d="M10.5845 6.87389C10.616 6.91894 10.6816 6.92112 10.7163 6.87824C11.0193 6.50263 11.3224 6.12703 11.6255 5.75143C11.6781 5.68521 11.7676 5.581 11.8392 5.48818C11.8804 5.43445 11.8402 5.35737 11.7725 5.36009L9.75711 5.43933C9.69259 5.44205 9.65572 5.51423 9.69205 5.56797C9.775 5.69172 9.85796 5.81548 9.94092 5.93869L11.3425 5.60379C11.3392 5.60705 11.3338 5.60976 11.3311 5.61193C11.3284 5.61411 11.323 5.61736 11.3203 5.61953L10.27 6.11618C10.2201 6.13789 10.1535 6.17045 10.1166 6.19325L9.98158 6.70835C9.96911 6.75611 10.0233 6.79356 10.0635 6.7648L10.3606 6.55311L10.585 6.87389H10.5845Z" fill="#AE7A4A"/>
<path d="M6.04882 9.21002C5.98972 9.31531 5.93062 9.43038 5.87423 9.55414C5.75766 9.80979 5.67633 10.0519 5.61831 10.2673L5.37378 9.95254C5.57927 9.65672 5.78477 9.36091 5.9908 9.06509C5.99893 9.08681 6.00652 9.10852 6.01466 9.12968C6.02604 9.15682 6.03743 9.18342 6.04882 9.21056V9.21002Z" fill="#AE7A4A"/>
<path d="M7.88101 7.31616C7.58822 7.44697 7.17615 7.67331 6.76787 8.05705C6.69305 8.12707 6.37641 8.42126 6.08579 8.89999C5.78162 9.40097 5.64173 9.87645 5.57341 10.2157C5.51377 10.1462 5.45304 10.068 5.39286 9.98012C5.36738 9.94212 5.34352 9.90467 5.32129 9.8683C5.43515 9.52473 5.62655 9.09865 5.95512 8.67474C6.52389 7.94036 7.19133 7.60166 7.52749 7.45294C7.67009 7.38998 7.79263 7.34547 7.88047 7.31616H7.88101Z" fill="#AE7A4A"/>
<path d="M6.9786 9.26102C6.9092 9.77503 7.07132 10.1854 7.15861 10.4003C7.28494 10.7097 7.4514 10.9458 7.59291 11.1124C7.43784 11.1151 7.22747 11.1054 6.98511 11.0511C6.89564 11.031 6.61207 10.9626 6.28133 10.7813C6.13819 10.7026 5.95222 10.5843 5.75757 10.4095C5.80149 10.1208 5.89366 9.72727 6.10132 9.29847C6.21573 9.06236 6.4467 8.64334 6.86636 8.22974C7.07945 8.01914 7.37169 7.77815 7.75286 7.57244C7.99739 7.44054 8.21969 7.35424 8.39319 7.29779C8.03697 7.52739 7.57339 7.9095 7.25024 8.50384C7.14939 8.68947 7.02469 8.9245 6.97914 9.26156L6.9786 9.26102Z" fill="#AE7A4A"/>
<defs>
<linearGradient id="paint0_linear_480_2194" x1="2.98522" y1="12.0176" x2="14.7099" y2="5.22964" gradientUnits="userSpaceOnUse">
<stop stop-color="#935323"/>
<stop offset="0.295" stop-color="#C58B4B"/>
<stop offset="0.605" stop-color="#A46731"/>
<stop offset="1" stop-color="#CC9351"/>
</linearGradient>
<linearGradient id="paint1_linear_480_2194" x1="7.40415" y1="2.06073" x2="7.40415" y2="13.5678" gradientUnits="userSpaceOnUse">
<stop stop-color="#A56935"/>
<stop offset="0.31" stop-color="#BC8C5E"/>
<stop offset="0.68" stop-color="#CDA57C"/>
<stop offset="1" stop-color="#CF9A5D"/>
</linearGradient>
</defs>
</svg>
