<svg width="15" height="20" viewBox="0 0 15 20" fill="none" xmlns="http://www.w3.org/2000/svg">
<path d="M6.16699 11.8741L8.03677 12.9536L4.23985 19.53L3.15006 17.0996L6.16699 11.8741Z" fill="#CE4444"/>
<path d="M6.16699 11.8741L4.29722 10.7946L0.500303 17.371L3.15006 17.0996L6.16699 11.8741Z" fill="#983535"/>
<path d="M8.8335 11.8741L6.96372 12.9536L10.7606 19.53L11.8504 17.0996L8.8335 11.8741Z" fill="#983535"/>
<path d="M8.8335 11.8741L10.7033 10.7946L14.5002 17.371L11.8504 17.0996L8.8335 11.8741Z" fill="#CE4444"/>
<circle cx="7.40422" cy="7.81291" r="6.90422" fill="url(#paint0_linear_480_2137)"/>
<circle cx="7.40415" cy="7.8129" r="5.75352" fill="url(#paint1_linear_480_2137)"/>
<path d="M8.88363 9.42827C9.14931 9.6025 9.41444 9.77728 9.68012 9.95151C9.5771 10.1084 9.41227 10.3217 9.16395 10.5258C9.00996 10.6528 8.78495 10.8075 8.48837 10.9274C8.09365 11.0865 7.75315 11.1093 7.59645 11.1131C6.93768 11.1283 6.46109 10.8775 6.28487 10.782C6.00293 10.6294 5.82021 10.4644 5.76111 10.4102C5.68466 10.3391 5.49543 10.154 5.3241 9.86846C4.96896 9.27955 4.95215 8.70312 4.95215 8.53431C4.95215 8.29495 4.98576 7.94486 5.143 7.55894C5.32898 7.10355 5.59736 6.81914 5.70309 6.71438C6.05118 6.37026 6.40687 6.22317 6.57766 6.15478C6.74411 6.08801 7.11715 5.94255 7.61001 5.95612C7.69676 5.95829 7.91906 5.96969 8.1945 6.04351C8.4271 6.10593 8.60711 6.18951 8.72314 6.2503C8.95412 6.37134 9.10756 6.49673 9.13955 6.52332C9.26263 6.62536 9.43342 6.78928 9.5912 7.03136C9.35968 7.23925 9.12762 7.44713 8.8961 7.65501C8.81098 7.53072 8.64669 7.32555 8.37451 7.15837C8.02912 6.94669 7.70814 6.91846 7.63549 6.91304C7.5406 6.90598 7.22288 6.89187 6.86123 7.05253C6.45675 7.23219 6.24312 7.52203 6.19378 7.59205C5.92431 7.97308 5.89666 8.37528 5.90533 8.59402C5.9113 8.73949 5.94383 9.06515 6.15312 9.39896C6.29734 9.6291 6.46868 9.77293 6.57224 9.84784C6.672 9.92057 6.80972 10.0036 6.98593 10.066C7.28794 10.173 7.55145 10.1648 7.69079 10.1507C7.80628 10.1393 8.04105 10.1133 8.28938 9.96888C8.43089 9.88692 8.53283 9.79247 8.62066 9.71106C8.73561 9.60467 8.82236 9.50426 8.88309 9.42773L8.88363 9.42827Z" fill="#E6AF3A"/>
<path d="M7.64082 11.1138C7.57142 11.0237 7.41798 10.7979 7.41147 10.4825C7.40876 10.3512 7.43208 10.2399 7.4581 10.1574C7.39521 10.1547 7.3231 10.1482 7.24502 10.1346C7.16911 10.1211 7.10079 10.1037 7.04224 10.0852C7.08724 10.2676 7.16532 10.4994 7.3052 10.7463C7.38707 10.8913 7.47437 11.0134 7.55624 11.1133C7.58443 11.1133 7.61317 11.1138 7.64137 11.1143L7.64082 11.1138Z" fill="#E6AF3A"/>
<path d="M10.5865 6.87466C10.6179 6.91971 10.6835 6.92188 10.7182 6.879C11.0213 6.5034 11.3244 6.12779 11.6275 5.75219C11.6801 5.68597 11.7695 5.58176 11.8411 5.48894C11.8823 5.43521 11.8422 5.35813 11.7744 5.36085L9.75907 5.44009C9.69454 5.44281 9.65767 5.515 9.694 5.56873C9.77696 5.69249 9.85991 5.81624 9.94287 5.93945L11.3445 5.60456C11.3412 5.60781 11.3358 5.61053 11.3331 5.6127C11.3304 5.61487 11.3249 5.61813 11.3222 5.6203L10.272 6.11694C10.2221 6.13865 10.1554 6.17122 10.1185 6.19401L9.98354 6.70911C9.97106 6.75687 10.0253 6.79433 10.0654 6.76556L10.3625 6.55387L10.587 6.87466H10.5865Z" fill="#E6AF3A"/>
<path d="M6.05077 9.21093C5.99167 9.31623 5.93257 9.4313 5.87618 9.55505C5.75961 9.8107 5.67828 10.0528 5.62026 10.2683L5.37573 9.95345C5.58123 9.65764 5.78672 9.36182 5.99275 9.06601C6.00089 9.08772 6.00848 9.10943 6.01661 9.1306C6.028 9.15774 6.03938 9.18434 6.05077 9.21147V9.21093Z" fill="#E6AF3A"/>
<path d="M7.88272 7.31693C7.58993 7.44773 7.17786 7.67407 6.76958 8.05782C6.69476 8.12784 6.37812 8.42202 6.0875 8.90075C5.78332 9.40174 5.64344 9.87721 5.57512 10.2164C5.51548 10.147 5.45475 10.0688 5.39457 9.98088C5.36908 9.94289 5.34523 9.90543 5.323 9.86907C5.43686 9.52549 5.62826 9.09941 5.95683 8.6755C6.52559 7.94112 7.19304 7.60243 7.5292 7.45371C7.6718 7.39074 7.79434 7.34624 7.88217 7.31693H7.88272Z" fill="#E6AF3A"/>
<path d="M6.98104 9.26175C6.91164 9.77576 7.07376 10.1861 7.16105 10.401C7.28738 10.7104 7.45384 10.9465 7.59535 11.1132C7.44028 11.1159 7.22991 11.1061 6.98755 11.0518C6.89808 11.0318 6.61451 10.9634 6.28377 10.7821C6.14063 10.7034 5.95466 10.585 5.76001 10.4103C5.80393 10.1215 5.8961 9.728 6.10376 9.2992C6.21817 9.06309 6.44914 8.64407 6.86881 8.23047C7.08189 8.01988 7.37413 7.77888 7.7553 7.57317C7.99983 7.44127 8.22213 7.35497 8.39564 7.29852C8.03941 7.52812 7.57583 7.91023 7.25268 8.50458C7.15183 8.69021 7.02713 8.92523 6.98158 9.26229L6.98104 9.26175Z" fill="#E6AF3A"/>
<defs>
<linearGradient id="paint0_linear_480_2137" x1="4.52746" y1="14.1418" x2="13.1577" y2="4.3608" gradientUnits="userSpaceOnUse">
<stop stop-color="#DBAF3D"/>
<stop offset="0.21" stop-color="#F1CE48"/>
<stop offset="0.47" stop-color="#F7D74B"/>
<stop offset="0.75" stop-color="#F4D34A"/>
<stop offset="0.99" stop-color="#E6BF42"/>
</linearGradient>
<linearGradient id="paint1_linear_480_2137" x1="3.25562" y1="5.14482" x2="10.9692" y2="10.2872" gradientUnits="userSpaceOnUse">
<stop stop-color="#DB9A26"/>
<stop offset="0.21" stop-color="#E5B955"/>
<stop offset="0.47" stop-color="#EFD380"/>
<stop offset="0.75" stop-color="#EFCD5E"/>
<stop offset="0.99" stop-color="#F3D04E"/>
</linearGradient>
</defs>
</svg>
