<svg width="15" height="20" viewBox="0 0 15 20" fill="none" xmlns="http://www.w3.org/2000/svg">
<path d="M6.16699 11.8754L8.03677 12.9549L4.23985 19.5314L3.15006 17.1009L6.16699 11.8754Z" fill="#418ED6"/>
<path d="M6.16699 11.8754L4.29722 10.7959L0.500302 17.3724L3.15006 17.1009L6.16699 11.8754Z" fill="#2B63A6"/>
<path d="M8.83325 11.8754L6.96348 12.9549L10.7604 19.5314L11.8502 17.1009L8.83325 11.8754Z" fill="#2B63A6"/>
<path d="M8.83325 11.8754L10.703 10.7959L14.4999 17.3724L11.8502 17.1009L8.83325 11.8754Z" fill="#418ED6"/>
<circle cx="7.40422" cy="7.81426" r="6.90422" fill="url(#paint0_linear_480_2166)"/>
<circle cx="7.40415" cy="7.81428" r="5.75352" fill="url(#paint1_linear_480_2166)"/>
<path d="M8.88168 9.42778C9.14735 9.60201 9.41249 9.77679 9.67817 9.95102C9.57515 10.1079 9.41032 10.3212 9.16199 10.5253C9.00801 10.6523 8.783 10.807 8.48641 10.9269C8.09169 11.086 7.75119 11.1088 7.5945 11.1126C6.93573 11.1278 6.45913 10.877 6.28292 10.7815C6.00098 10.6289 5.81826 10.4639 5.75916 10.4097C5.68271 10.3386 5.49348 10.1535 5.32214 9.86797C4.967 9.27906 4.9502 8.70263 4.9502 8.53383C4.9502 8.29446 4.98381 7.94437 5.14105 7.55845C5.32702 7.10306 5.59541 6.81865 5.70114 6.71389C6.04923 6.36977 6.40491 6.22268 6.57571 6.15429C6.74216 6.08753 7.11519 5.94206 7.60805 5.95563C7.6948 5.9578 7.91711 5.9692 8.19254 6.04302C8.42515 6.10544 8.60516 6.18902 8.72119 6.24982C8.95216 6.37086 9.10561 6.49624 9.13759 6.52283C9.26067 6.62488 9.43147 6.78879 9.58925 7.03087C9.35773 7.23876 9.12567 7.44664 8.89415 7.65453C8.80902 7.53023 8.64474 7.32506 8.37255 7.15788C8.02717 6.9462 7.70619 6.91798 7.63354 6.91255C7.53865 6.90549 7.22092 6.89138 6.85928 7.05204C6.4548 7.2317 6.24117 7.52155 6.19183 7.59156C5.92236 7.97259 5.89471 8.37479 5.90338 8.59353C5.90934 8.739 5.94188 9.06466 6.15117 9.39847C6.29539 9.62861 6.46672 9.77245 6.57028 9.84735C6.67005 9.92008 6.80777 10.0031 6.98398 10.0655C7.28599 10.1725 7.54949 10.1643 7.68884 10.1502C7.80433 10.1388 8.0391 10.1128 8.28743 9.96839C8.42894 9.88643 8.53087 9.79199 8.61871 9.71057C8.73366 9.60418 8.82041 9.50377 8.88113 9.42724L8.88168 9.42778Z" fill="#B9B9B7"/>
<path d="M7.63838 11.1131C7.56898 11.023 7.41554 10.7972 7.40903 10.4818C7.40632 10.3505 7.42964 10.2392 7.45566 10.1567C7.39277 10.154 7.32065 10.1475 7.24258 10.1339C7.16667 10.1204 7.09835 10.103 7.03979 10.0845C7.0848 10.2669 7.16287 10.4987 7.30276 10.7456C7.38463 10.8906 7.47193 11.0127 7.5538 11.1126C7.58199 11.1126 7.61073 11.1131 7.63892 11.1136L7.63838 11.1131Z" fill="#B9B9B7"/>
<path d="M10.5843 6.87392C10.6157 6.91897 10.6813 6.92115 10.716 6.87827C11.0191 6.50266 11.3222 6.12706 11.6253 5.75146C11.6779 5.68524 11.7673 5.58103 11.8389 5.48821C11.8801 5.43448 11.84 5.3574 11.7722 5.36012L9.75687 5.43936C9.69235 5.44208 9.65548 5.51427 9.6918 5.568C9.77476 5.69175 9.85772 5.81551 9.94067 5.93872L11.3423 5.60382C11.339 5.60708 11.3336 5.60979 11.3309 5.61197C11.3282 5.61414 11.3227 5.61739 11.32 5.61956L10.2698 6.11621C10.2199 6.13792 10.1532 6.17048 10.1163 6.19328L9.98134 6.70838C9.96887 6.75614 10.0231 6.79359 10.0632 6.76483L10.3603 6.55314L10.5848 6.87392H10.5843Z" fill="#B9B9B7"/>
<path d="M6.04882 9.21017C5.98972 9.31547 5.93062 9.43054 5.87423 9.55429C5.75766 9.80994 5.67633 10.052 5.61831 10.2675L5.37378 9.95269C5.57927 9.65688 5.78477 9.36106 5.9908 9.06525C5.99893 9.08696 6.00652 9.10867 6.01466 9.12984C6.02604 9.15698 6.03743 9.18357 6.04882 9.21071V9.21017Z" fill="#B9B9B7"/>
<path d="M7.87979 7.31622C7.587 7.44703 7.17493 7.67337 6.76665 8.05712C6.69183 8.12713 6.37519 8.42132 6.08457 8.90005C5.78039 9.40103 5.64051 9.87651 5.57219 10.2157C5.51255 10.1463 5.45182 10.0681 5.39164 9.98018C5.36616 9.94218 5.3423 9.90473 5.32007 9.86837C5.43393 9.52479 5.62533 9.09871 5.9539 8.6748C6.52266 7.94042 7.19011 7.60172 7.52627 7.453C7.66887 7.39004 7.79141 7.34553 7.87925 7.31622H7.87979Z" fill="#B9B9B7"/>
<path d="M6.9786 9.26114C6.9092 9.77515 7.07132 10.1855 7.15861 10.4004C7.28494 10.7098 7.4514 10.9459 7.59291 11.1126C7.43784 11.1153 7.22747 11.1055 6.98511 11.0512C6.89564 11.0311 6.61207 10.9628 6.28133 10.7815C6.13819 10.7028 5.95222 10.5844 5.75757 10.4097C5.80149 10.1209 5.89366 9.72739 6.10132 9.29859C6.21573 9.06248 6.4467 8.64346 6.86636 8.22986C7.07945 8.01926 7.37169 7.77827 7.75286 7.57256C7.99739 7.44066 8.21969 7.35436 8.39319 7.29791C8.03697 7.52751 7.57339 7.90962 7.25024 8.50397C7.14939 8.6896 7.02469 8.92462 6.97914 9.26168L6.9786 9.26114Z" fill="#B9B9B7"/>
<defs>
<linearGradient id="paint0_linear_480_2166" x1="12.2415" y1="2.7613" x2="1.75105" y2="12.6347" gradientUnits="userSpaceOnUse">
<stop stop-color="#B2B0B4"/>
<stop offset="0.385" stop-color="#B9B7BA"/>
<stop offset="0.71" stop-color="#CDCBCF"/>
<stop offset="1" stop-color="#D7D5D9"/>
</linearGradient>
<linearGradient id="paint1_linear_480_2166" x1="3.3452" y1="4.39625" x2="11.2506" y2="11.6429" gradientUnits="userSpaceOnUse">
<stop stop-color="#9F9DA3"/>
<stop offset="0.32" stop-color="#DBDADC"/>
<stop offset="0.625" stop-color="#D4D4D5"/>
<stop offset="0.985" stop-color="#E4E4E3"/>
</linearGradient>
</defs>
</svg>
