<svg width="37" height="37" viewBox="0 0 37 37" fill="none" xmlns="http://www.w3.org/2000/svg">
<g filter="url(#filter0_d_287_5314)">
<rect x="4.73438" y="4.58203" width="28" height="28" rx="8" fill="white"/>
<path d="M10.9336 12.1461C10.9336 11.5133 11.4596 11 12.1085 11H25.7587C26.4076 11 26.9336 11.5133 26.9336 12.1461V25.8539C26.9336 26.4869 26.4076 27 25.7587 27L12.1085 27C11.4596 27 10.9336 26.4869 10.9336 25.8539V12.1461ZM15.877 24.3937V17.1688H13.4756V24.3937H15.877ZM14.6763 16.1823C15.5137 16.1823 16.0349 15.6275 16.0349 14.9342C16.0193 14.2253 15.5137 13.6859 14.6921 13.6859C13.8707 13.6859 13.3336 14.2253 13.3336 14.9342C13.3336 15.6275 13.8547 16.1823 14.6606 16.1823H14.6763ZM19.585 24.3937V20.359C19.585 20.143 19.6006 19.9273 19.664 19.773C19.8376 19.3415 20.2327 18.8947 20.8961 18.8947C21.7651 18.8947 22.1127 19.5572 22.1127 20.5285V24.3937H24.5139V20.251C24.5139 18.0318 23.3292 16.9992 21.7492 16.9992C20.4754 16.9992 19.9042 17.6994 19.5851 18.1917V18.2166H19.569C19.5743 18.2083 19.5796 18.2 19.5851 18.1917V17.1688H17.1837C17.2152 17.8467 17.1837 24.3937 17.1837 24.3937H19.585Z" fill="#004850"/>
</g>
<defs>
<filter id="filter0_d_287_5314" x="0.734375" y="0.582031" width="36" height="36" filterUnits="userSpaceOnUse" color-interpolation-filters="sRGB">
<feFlood flood-opacity="0" result="BackgroundImageFix"/>
<feColorMatrix in="SourceAlpha" type="matrix" values="0 0 0 0 0 0 0 0 0 0 0 0 0 0 0 0 0 0 127 0" result="hardAlpha"/>
<feOffset/>
<feGaussianBlur stdDeviation="2"/>
<feComposite in2="hardAlpha" operator="out"/>
<feColorMatrix type="matrix" values="0 0 0 0 0.41961 0 0 0 0 0.41961 0 0 0 0 0.41961 0 0 0 0.25 0"/>
<feBlend mode="normal" in2="BackgroundImageFix" result="effect1_dropShadow_287_5314"/>
<feBlend mode="normal" in="SourceGraphic" in2="effect1_dropShadow_287_5314" result="shape"/>
</filter>
</defs>
</svg>
