<svg width="20" height="15" viewBox="0 0 20 15" fill="none" xmlns="http://www.w3.org/2000/svg">
<path d="M0.7525 0.5C1.1322 0.5 1.44594 0.78227 1.49554 1.14836L1.50237 1.25014L1.5 14.2542C1.49992 14.6684 1.16408 15.0041 0.74986 15.0041C0.37017 15.0041 0.05642 14.7218 0.00682998 14.3557L0 14.2539L0.00237012 1.24986C0.00244012 0.83565 0.33829 0.5 0.7525 0.5ZM13.6471 2.30373L13.7197 2.21961C13.986 1.95338 14.4027 1.92921 14.6963 2.1471L14.7804 2.21972L19.777 7.2174C20.0431 7.4835 20.0674 7.8999 19.8498 8.1935L19.7773 8.2776L14.7807 13.2811C14.488 13.5742 14.0131 13.5745 13.72 13.2818C13.4536 13.0157 13.4291 12.5991 13.6467 12.3053L13.7193 12.2211L17.43 8.504L3.75295 8.5049C3.37326 8.5049 3.05946 8.2228 3.0098 7.8567L3.00295 7.7549C3.00295 7.3752 3.28511 7.0615 3.65118 7.0118L3.75295 7.0049L17.443 7.004L13.7196 3.28028C13.4534 3.01398 13.4292 2.59732 13.6471 2.30373Z" fill="#004850"/>
</svg>
