<svg width="18" height="20" viewBox="0 0 18 20" fill="none" xmlns="http://www.w3.org/2000/svg">
<path d="M10.4938 0.00289917C12.0915 0.00289917 13.3975 1.25182 13.4879 2.82193L13.4928 2.99766L15.7438 2.99866C16.611 2.99866 17.3309 3.62938 17.4697 4.45724L17.488 4.60529L17.4938 4.74884L17.4929 8.49989L15.4953 8.49999C14.7517 8.49999 14.1291 9.04319 14.0154 9.73899L14.0001 9.87119L13.9953 9.99999C13.9953 10.7436 14.5385 11.3662 15.2344 11.4799L15.3665 11.4952L15.4953 11.5L17.4929 11.4999L17.4938 15.2513C17.4938 16.1695 16.7867 16.9225 15.8873 16.9955L15.7438 17.0013L13.4928 17.0007L13.4888 17.1733C13.4044 18.6291 12.2819 19.8065 10.8506 19.9761L10.6701 19.992L10.4938 19.9971C8.89618 19.9971 7.59018 18.7481 7.49888 17.1766L7.49383 17.0007L5.24383 17.0013C4.37666 17.0013 3.65681 16.3706 3.518 15.543L3.49963 15.395L3.49383 15.2515L3.49283 12.9997L3.32983 12.9949C1.874 12.9105 0.696684 11.7881 0.527094 10.3567L0.511194 10.1763L0.506104 9.99999C0.506104 8.40229 1.75502 7.09631 3.32976 7.00506L3.49283 6.99966L3.49383 4.74866C3.49383 3.8815 4.12455 3.16165 4.95214 3.02284L5.10014 3.00446L5.24364 2.99866L7.49283 2.99766L7.49888 2.82662C7.58328 1.3708 8.70578 0.193479 10.1371 0.0238891L10.3176 0.00798917L10.4938 0.00289917ZM10.4938 1.5029C9.71418 1.5029 9.07338 2.09778 9.00068 2.85905L8.99378 3.00363L8.99238 4.49771L5.24383 4.49866C5.12548 4.49866 5.02634 4.58089 5.00043 4.69145L4.99383 4.74884L4.99292 8.49979L3.5061 8.49999C2.67767 8.49999 2.0061 9.17159 2.0061 9.99999C2.0061 10.7797 2.60099 11.4204 3.36158 11.4931L3.50603 11.5L4.99292 11.4998L4.99383 15.2513C4.99383 15.3696 5.07606 15.4688 5.18645 15.4947L5.24373 15.5013L8.99238 15.5008L8.99378 16.9971C8.99378 17.8255 9.66538 18.4971 10.4938 18.4971C11.2735 18.4971 11.9143 17.9022 11.987 17.1421L11.9938 16.9978L11.9924 15.5008L15.7438 15.5013C15.8622 15.5013 15.9613 15.4191 15.9872 15.3087L15.9938 15.2515L15.9928 12.9987L15.4701 12.9996L15.2907 12.9931C13.7794 12.8909 12.5866 11.6756 12.5007 10.1519L12.4957 9.97469L12.5022 9.79529C12.6044 8.28399 13.8197 7.09125 15.3208 7.00497L15.4953 6.99997L15.9928 6.99966L15.9938 4.74866C15.9938 4.65398 15.9412 4.5716 15.8636 4.52916L15.8011 4.50526L15.7437 4.49866L11.9924 4.49771L11.9938 3.0029C11.9938 2.17447 11.3223 1.5029 10.4938 1.5029Z" fill="#004850"/>
</svg>
