<svg width="17" height="16" viewBox="0 0 17 16" fill="none" xmlns="http://www.w3.org/2000/svg">
<path d="M12.2422 10.3439C13.0329 9.2673 13.5 7.9382 13.5 6.5C13.5 2.91015 10.5899 0 7 0C3.41015 0 0.5 2.91015 0.5 6.5C0.5 10.0899 3.41015 13 7 13C8.43858 13 9.76801 12.5327 10.8448 11.7415L10.8439 11.7422C10.8734 11.7822 10.9062 11.8204 10.9424 11.8566L14.7929 15.7071C15.1834 16.0976 15.8166 16.0976 16.2071 15.7071C16.5976 15.3166 16.5976 14.6834 16.2071 14.2929L12.3566 10.4424C12.3204 10.4062 12.2822 10.3734 12.2422 10.3439ZM12.5 6.5C12.5 9.53757 10.0376 12 7 12C3.96243 12 1.5 9.53757 1.5 6.5C1.5 3.46243 3.96243 1 7 1C10.0376 1 12.5 3.46243 12.5 6.5Z" fill="#6F7979"/>
</svg>
