<svg width="113" height="144" viewBox="0 0 113 144" fill="none" xmlns="http://www.w3.org/2000/svg">
<mask id="path-1-inside-1_480_318" fill="white">
<path d="M41 5.14749C41 2.58075 43.083 0.484268 45.6443 0.650986C55.323 1.28098 64.7895 3.87502 73.4603 8.29303C83.5139 13.4156 92.2125 20.8449 98.8447 29.9734C105.477 39.1019 109.855 49.6704 111.62 60.8149C113.385 71.9595 112.487 83.3635 109.001 94.0947C105.514 104.826 99.5367 114.58 91.5581 122.558C83.5795 130.537 73.8259 136.514 63.0947 140.001C52.3635 143.487 40.9595 144.385 29.8149 142.62C20.2032 141.097 11.02 137.632 2.81945 132.452C0.649305 131.082 0.196386 128.161 1.70508 126.085C3.21378 124.008 6.1119 123.564 8.29527 124.914C15.299 129.243 23.1064 132.146 31.269 133.439C40.9647 134.975 50.8863 134.194 60.2224 131.16C69.5585 128.127 78.0442 122.927 84.9856 115.986C91.927 109.044 97.127 100.559 100.16 91.2224C103.194 81.8863 103.975 71.9647 102.439 62.269C100.904 52.5733 97.095 43.3786 91.3249 35.4368C85.5549 27.495 77.9871 21.0316 69.2405 16.5749C61.8769 12.823 53.8538 10.5831 45.6432 9.96852C43.0836 9.77693 41 7.71425 41 5.14749Z"/>
</mask>
<path d="M41 5.14749C41 2.58075 43.083 0.484268 45.6443 0.650986C55.323 1.28098 64.7895 3.87502 73.4603 8.29303C83.5139 13.4156 92.2125 20.8449 98.8447 29.9734C105.477 39.1019 109.855 49.6704 111.62 60.8149C113.385 71.9595 112.487 83.3635 109.001 94.0947C105.514 104.826 99.5367 114.58 91.5581 122.558C83.5795 130.537 73.8259 136.514 63.0947 140.001C52.3635 143.487 40.9595 144.385 29.8149 142.62C20.2032 141.097 11.02 137.632 2.81945 132.452C0.649305 131.082 0.196386 128.161 1.70508 126.085C3.21378 124.008 6.1119 123.564 8.29527 124.914C15.299 129.243 23.1064 132.146 31.269 133.439C40.9647 134.975 50.8863 134.194 60.2224 131.16C69.5585 128.127 78.0442 122.927 84.9856 115.986C91.927 109.044 97.127 100.559 100.16 91.2224C103.194 81.8863 103.975 71.9647 102.439 62.269C100.904 52.5733 97.095 43.3786 91.3249 35.4368C85.5549 27.495 77.9871 21.0316 69.2405 16.5749C61.8769 12.823 53.8538 10.5831 45.6432 9.96852C43.0836 9.77693 41 7.71425 41 5.14749Z" stroke="url(#paint0_linear_480_318)" stroke-width="70.642" stroke-linecap="round" mask="url(#path-1-inside-1_480_318)"/>
<defs>
<linearGradient id="paint0_linear_480_318" x1="13.0703" y1="0.500004" x2="112.5" y2="-11.7891" gradientUnits="userSpaceOnUse">
<stop stop-color="#F6C136"/>
<stop offset="1" stop-color="#FFDD7A"/>
</linearGradient>
</defs>
</svg>
