<svg width="14" height="10" viewBox="0 0 14 10" fill="none" xmlns="http://www.w3.org/2000/svg">
<path d="M5.09778 1.01285C5.19071 0.971229 5.29999 1.03897 5.29999 1.14672V2.3C5.29999 2.57614 5.52385 2.8 5.79999 2.8C6.46708 2.8 7.81297 2.80519 9.10091 3.62221C10.084 4.24583 11.0907 5.38186 11.6948 7.49827C10.6744 6.51466 9.50959 5.98244 8.48996 5.69945C7.73659 5.49037 7.05907 5.41588 6.56891 5.39348C6.32336 5.38226 6.12345 5.38406 5.98285 5.38886C5.91251 5.39126 5.85688 5.39441 5.81767 5.39708C5.79806 5.39842 5.78254 5.39963 5.77133 5.40057L5.75775 5.40176L5.75343 5.40216L5.7519 5.40231C5.75164 5.40234 5.75078 5.40242 5.79999 5.89999L5.75078 5.40242C5.49495 5.42772 5.29999 5.64291 5.29999 5.89999V7.05327C5.29999 7.16102 5.19071 7.22876 5.09779 7.18714L1.11425 4.25435C1.10054 4.24426 1.08633 4.23487 1.07167 4.22623C0.97611 4.16992 0.97611 4.03007 1.07167 3.97376C1.08633 3.96512 1.10054 3.95573 1.11425 3.94564L5.09778 1.01285ZM6.29999 6.38575C6.36798 6.38669 6.44263 6.38876 6.52327 6.39244C6.95655 6.41223 7.55715 6.47837 8.22253 6.66303C9.54908 7.03119 11.1194 7.86455 12.1629 9.74282C12.2792 9.95216 12.5276 10.0496 12.7552 9.97528C12.9829 9.90092 13.1258 9.6756 13.0961 9.43798C12.6323 5.72756 11.2103 3.77609 9.63658 2.77778C8.39054 1.98734 7.10923 1.83587 6.29999 1.80686V1.14672C6.29999 0.251288 5.33059 -0.286145 4.57532 0.158953C4.56065 0.167595 4.54644 0.17698 4.53273 0.187071L0.539224 3.12721C-0.17974 3.57436 -0.179741 4.62562 0.53922 5.07278L4.53273 8.01292C4.54644 8.02301 4.56065 8.03239 4.57532 8.04103C5.33059 8.48613 6.29999 7.9487 6.29999 7.05327V6.38575Z" fill="#004850"/>
</svg>
