<svg width="16" height="14" viewBox="0 0 16 14" fill="none" xmlns="http://www.w3.org/2000/svg">
<path d="M8.80741 1.0681C8.47728 0.399172 7.52341 0.399179 7.19328 1.0681L5.6213 4.25325L2.10628 4.76401C1.36808 4.87127 1.07333 5.77847 1.60749 6.29913L4.15098 8.7784L3.55054 12.2793C3.42445 13.0145 4.19613 13.5751 4.8564 13.228L8.00035 11.5751L11.1443 13.228C11.8045 13.5751 12.5762 13.0145 12.4501 12.2793L11.8497 8.7784L14.3931 6.29913C14.9273 5.77847 14.6325 4.87127 13.8943 4.76401L10.3793 4.25325L8.80741 1.0681ZM0.776334 1.52068C0.603827 1.73631 0.638787 2.05095 0.854421 2.22346L2.52109 3.55679C2.73671 3.7293 3.05136 3.69434 3.22387 3.47871C3.39637 3.26307 3.36141 2.94843 3.14578 2.77593L1.47911 1.44259C1.26348 1.27009 0.948834 1.30505 0.776334 1.52068ZM15.2239 11.1454C15.3964 10.9297 15.3614 10.6151 15.1458 10.4426L13.4791 9.10927C13.2635 8.93673 12.9489 8.97173 12.7763 9.18733C12.6038 9.403 12.6388 9.7176 12.8544 9.89013L14.5211 11.2235C14.7367 11.3959 15.0513 11.361 15.2239 11.1454ZM0.854421 10.4426C0.638787 10.6151 0.603827 10.9297 0.776334 11.1454C0.948834 11.361 1.26348 11.3959 1.47911 11.2235L3.14578 9.89013C3.36141 9.7176 3.39637 9.403 3.22387 9.18733C3.05136 8.97173 2.73671 8.93673 2.52109 9.10927L0.854421 10.4426ZM15.2239 1.52068C15.3964 1.73631 15.3614 2.05095 15.1458 2.22346L13.4791 3.55679C13.2635 3.7293 12.9489 3.69434 12.7763 3.47871C12.6038 3.26307 12.6388 2.94843 12.8544 2.77593L14.5211 1.44259C14.7367 1.27009 15.0513 1.30505 15.2239 1.52068Z" fill="#9747FF"/>
</svg>
